<svg width="84" height="71" viewBox="0 0 84 71" fill="none" xmlns="http://www.w3.org/2000/svg">
<path d="M67.9316 5.39944C67.287 5.39944 66.7011 5.00882 66.455 4.41116C66.205 3.8135 66.3417 3.12596 66.8026 2.66506C67.2596 2.20803 67.9471 2.07131 68.5448 2.32131C69.1425 2.5674 69.5331 3.14943 69.5331 3.79791C69.5331 4.22369 69.3651 4.62994 69.0643 4.93071C68.7636 5.23149 68.3573 5.39944 67.9316 5.39944Z" fill="black"/>
<path d="M41.6037 70.2192C41.2912 70.2192 40.9865 70.1294 40.7287 69.9575C40.6427 69.8989 38.5607 68.5356 35.3303 66.1919C34.8693 65.8599 34.3849 65.5044 33.8772 65.1294C29.4045 61.8208 22.7912 56.6411 16.6582 50.7154L16.623 50.6803C14.08 48.2194 11.7832 45.7897 9.8027 43.4655C6.7441 39.8639 4.3691 36.4147 2.7402 33.2235C2.23239 32.2313 1.77926 31.2157 1.3808 30.1766C-0.00200129 26.5399 -0.349701 22.7977 0.353499 19.0596C0.998029 15.6299 2.5449 12.2901 4.834 9.40727H4.83009C6.90819 6.80177 9.48239 4.63387 12.4043 3.03617C15.3965 1.38387 18.709 0.375966 22.1152 0.0869663C26.9316 -0.319284 31.791 0.770556 36.1582 3.23927C36.2715 3.30177 36.3926 3.37208 36.5098 3.43849L36.5293 3.45021H36.5332C38.3535 4.52831 40.0527 5.79401 41.6035 7.23141C43.1543 5.79781 44.8496 4.5322 46.666 3.458L46.6894 3.44238C46.8066 3.37207 46.9277 3.30176 47.0488 3.23535C51.4121 0.76655 56.2715 -0.323249 61.0878 0.0830506V0.0869568C64.498 0.376017 67.8066 1.38386 70.8026 3.03616C73.7245 4.63776 76.2987 6.80566 78.3768 9.41116C80.662 12.294 82.2127 15.6339 82.8573 19.0635C83.5565 22.8018 83.2128 26.544 81.83 30.1805H81.8261C81.4276 31.2196 80.9706 32.2391 80.4628 33.2274C78.8339 36.4188 76.4628 39.8641 73.4003 43.4654C71.412 45.8013 69.0995 48.2427 66.5448 50.7193C60.4159 56.6373 53.8028 61.8243 49.3298 65.1293C48.822 65.5003 48.3415 65.8558 47.8767 66.1918C44.6462 68.5356 42.5681 69.8988 42.4783 69.9574H42.4744C42.2166 70.1292 41.9122 70.2192 41.6037 70.2192ZM18.9157 48.4462C24.9157 54.2353 31.3957 59.3132 35.7787 62.5552C36.2787 62.9224 36.7552 63.274 37.2084 63.606C39.1615 65.0201 40.7045 66.0826 41.6029 66.6919C42.5013 66.0826 44.0443 65.02 45.9935 63.6021C46.4466 63.2701 46.927 62.9225 47.4232 62.5513C51.8138 59.3052 58.3142 54.2115 64.3212 48.4103C66.8095 46.0119 69.0439 43.6447 70.9618 41.3869C73.8602 37.9767 76.0985 34.7385 77.6102 31.7658L77.618 31.7698C78.0711 30.883 78.4773 29.9689 78.8368 29.0392C81.1102 23.0704 80.0282 16.6413 75.868 11.3942C72.1766 6.73405 66.6883 3.77315 60.821 3.27705C56.6491 2.92549 52.4304 3.87861 48.622 6.02705C48.5126 6.08955 48.4071 6.14814 48.3017 6.21064L48.2821 6.22236L48.286 6.21845C46.2548 7.42545 44.3915 8.89035 42.743 10.5779C42.4423 10.8825 42.0321 11.0544 41.6063 11.0544C41.1766 11.0544 40.7704 10.8825 40.4696 10.5779C38.8173 8.89035 36.9501 7.42555 34.9227 6.21455L34.9032 6.21065C34.8016 6.15205 34.6962 6.08956 34.5907 6.03096C30.7782 3.87476 26.5595 2.92546 22.3917 3.27706C16.5206 3.77706 11.0367 6.73406 7.3447 11.3943C3.1806 16.6365 2.1025 23.0663 4.372 29.0393C4.73138 29.9689 5.13762 30.8831 5.5908 31.7698C7.1064 34.7386 9.3408 37.9768 12.2392 41.3909C14.1572 43.6487 16.3915 46.012 18.8798 48.4143L18.9157 48.4462Z" fill="black"/>
<path d="M48.3768 65.4425C48.2752 65.4425 48.1697 65.4347 48.0682 65.4112C47.6502 65.3331 47.283 65.087 47.0448 64.7354C46.8104 64.3839 46.7206 63.9503 46.8026 63.5323C47.8299 58.3175 48.5487 51.9543 48.8807 45.1263C49.0213 42.2552 49.0916 39.2943 49.0916 36.3255C49.0916 33.3567 49.0213 30.3919 48.8807 27.5247C48.6659 23.0559 48.2869 18.8138 47.7596 14.9227C47.3885 12.1883 46.9471 9.67274 46.4471 7.41494V7.41885C45.119 8.36807 43.8807 9.42665 42.7362 10.5907C42.4354 10.8915 42.0253 11.0634 41.5995 11.0634C41.1737 11.0634 40.7636 10.8915 40.4628 10.5907C39.3222 9.42665 38.08 8.36025 36.7558 7.41105C36.2558 9.66885 35.8144 12.1844 35.4433 14.9188C34.916 18.8133 34.537 23.0555 34.3222 27.5238C34.1816 30.391 34.1113 33.3558 34.1113 36.3246C34.1113 39.2934 34.1816 42.2583 34.3222 45.1255C34.6503 51.9497 35.3691 58.3164 36.4003 63.5314V63.5275C36.4901 63.9494 36.4081 64.3869 36.1737 64.7463C35.9355 65.1057 35.5683 65.3557 35.1464 65.4378C34.7246 65.5198 34.2871 65.4299 33.9316 65.1878C33.5762 64.9456 33.334 64.5706 33.2598 64.1487C32.2012 58.7854 31.4589 52.2577 31.1269 45.2777C30.9863 42.3558 30.9121 39.3441 30.9121 36.3207C30.9121 33.2973 30.9824 30.2855 31.1269 27.3637C31.3457 22.8012 31.7324 18.4692 32.2754 14.4847C32.7558 10.9535 33.3496 7.75415 34.041 4.98465L34.0488 4.95731C34.0956 4.77762 34.1386 4.60184 34.1855 4.42997L34.1816 4.42606C34.3105 3.94168 34.6542 3.54715 35.1191 3.35576C35.58 3.16435 36.1074 3.19951 36.5371 3.45342C38.3574 4.53152 40.0527 5.79722 41.6035 7.23072C43.1543 5.79712 44.8496 4.53152 46.6699 3.45732C47.0996 3.20341 47.6269 3.16826 48.0918 3.35966C48.5527 3.55107 48.9004 3.9495 49.0254 4.43386C49.0722 4.60964 49.1152 4.78152 49.1582 4.9612C49.8535 7.7385 50.4473 10.9456 50.9316 14.4885C51.4706 18.4729 51.8613 22.8088 52.08 27.3675C52.2206 30.2894 52.2948 33.3011 52.2948 36.3245C52.2948 39.3479 52.2245 42.3597 52.08 45.2815C51.744 52.262 51.0058 58.7815 49.9472 64.1525C49.7987 64.9025 49.1424 65.4425 48.3768 65.4425Z" fill="black"/>
<path d="M18.2087 51.5874C17.3727 51.5874 16.6775 50.9389 16.6149 50.1069C16.5524 49.2709 17.1422 48.5288 17.9704 48.4038C22.3766 47.7358 27.2477 47.2632 32.4544 47.0054L32.5911 46.9976L32.8567 46.9858C35.6809 46.8491 38.6223 46.7866 41.6067 46.7866C44.5911 46.7866 47.5364 46.8569 50.3567 46.9858L50.6224 46.9976L50.7513 47.0054C55.9622 47.2632 60.8373 47.7319 65.2393 48.4038H65.2354C66.1104 48.5366 66.7081 49.353 66.5752 50.228C66.4423 51.103 65.6259 51.7007 64.7549 51.5678C60.4541 50.9154 55.6924 50.4545 50.5949 50.2045L50.462 50.1967L50.2238 50.1849H50.2042C47.4308 50.0521 44.5362 49.9857 41.6026 49.9857C38.6729 49.9857 35.7745 50.0521 33.001 50.1849H32.9854L32.7471 50.1967L32.6065 50.2045C27.5167 50.4584 22.751 50.9154 18.4505 51.5678H18.4544C18.3724 51.5795 18.2907 51.5874 18.2087 51.5874Z" fill="black"/>
<path d="M41.6037 21.11C38.9904 21.11 36.3615 21.0553 33.7951 20.9499L33.2483 20.9264C28.1038 20.696 23.2561 20.2545 18.8343 19.6178L18.1155 19.5085C12.9749 18.735 8.74051 17.7351 5.52951 16.5437C4.67013 16.2312 3.83421 15.8718 3.01781 15.4617C2.635 15.2742 2.33812 14.9382 2.2014 14.532C2.06468 14.1257 2.09593 13.6804 2.29125 13.2976C2.48656 12.9147 2.82641 12.6257 3.23656 12.4968C3.64672 12.3679 4.09203 12.4069 4.47096 12.6101C5.17799 12.9616 5.90066 13.2741 6.64286 13.5437C9.60376 14.6453 13.7367 15.614 18.5879 16.3445L19.2871 16.446C23.6035 17.0671 28.3496 17.4968 33.3891 17.7233L33.9203 17.7468C36.4476 17.8522 39.0297 17.9069 41.6 17.9069C42.8852 17.9069 44.1742 17.8913 45.4281 17.8678C46.7289 17.8405 48.0219 17.8014 49.2758 17.7507L49.811 17.7272C54.8501 17.5007 59.5962 17.071 63.913 16.4499L64.6122 16.3484C69.4599 15.6179 73.5927 14.6492 76.5532 13.5476V13.5437C77.2993 13.2741 78.0298 12.9616 78.7368 12.6101C79.1157 12.4069 79.561 12.3679 79.9712 12.4968C80.3814 12.6257 80.7212 12.9148 80.9165 13.2976C81.1118 13.6804 81.1431 14.1257 81.0064 14.532C80.8696 14.9382 80.5728 15.2742 80.1899 15.4617C79.3735 15.8718 78.5377 16.2312 77.6783 16.5437C74.4674 17.739 70.233 18.7351 65.0963 19.5085C64.858 19.5436 64.6197 19.5788 64.3775 19.61C59.9517 20.2467 55.1002 20.6881 49.9595 20.9186C49.7759 20.9264 49.5923 20.9342 49.4087 20.9421C48.1353 20.9967 46.8189 21.0358 45.4985 21.0631C44.2212 21.0983 42.9123 21.11 41.6037 21.11Z" fill="black"/>
<path d="M35.6037 6.95048C34.8811 6.95048 34.2521 6.4661 34.0607 5.77078C33.9943 5.55203 33.9279 5.33719 33.8615 5.12625C33.5881 4.28641 34.049 3.38405 34.8927 3.11065C35.7326 2.84112 36.6349 3.30206 36.9044 4.14185C36.9825 4.38404 37.0607 4.63013 37.1388 4.88013C37.2872 5.36841 37.1974 5.89573 36.8927 6.30203C36.5919 6.71219 36.1116 6.95048 35.6037 6.95048Z" fill="black"/>
<path d="M17.7715 51.165C16.9356 51.165 16.2403 50.5205 16.1777 49.6884C16.002 47.7665 15.8652 45.7743 15.7676 43.7587C15.6504 41.3212 15.5879 38.8173 15.5879 36.3251C15.5879 33.829 15.6465 31.3251 15.7676 28.8876C16.041 23.2196 16.6191 17.9106 17.4864 13.1026C18.3497 8.29404 19.4591 4.24324 20.7755 1.06764C21.1114 0.251233 22.0489 -0.135456 22.8653 0.204364C23.6817 0.540304 24.0684 1.47776 23.7325 2.29416C22.5216 5.21606 21.4513 9.14966 20.6309 13.6692C19.791 18.3411 19.2325 23.513 18.959 29.0442C18.8418 31.4309 18.7832 33.8801 18.7832 36.3254C18.7832 38.7707 18.8418 41.2199 18.959 43.6066C19.0605 45.5832 19.1894 47.5402 19.3574 49.423L19.3613 49.4191C19.3652 49.4659 19.3691 49.5167 19.3691 49.5636C19.3691 50.4464 18.6544 51.1611 17.7715 51.165Z" fill="black"/>
<path d="M65.4357 51.1653C65.3849 51.1653 65.3341 51.1653 65.2873 51.1575H65.2912C64.8654 51.1184 64.4787 50.9153 64.2053 50.5872C63.9357 50.2629 63.8029 49.8411 63.842 49.4192C64.0139 47.5364 64.1467 45.5794 64.2404 43.6067C64.3576 41.22 64.4162 38.7708 64.4162 36.3255C64.4162 33.8802 64.3576 31.431 64.2404 29.0443C63.9748 23.5131 63.4123 18.3453 62.5685 13.6693C61.842 9.61066 60.9044 6.02086 59.8419 3.21626C56.1896 3.08345 52.5294 3.94673 49.1659 5.72796L49.1386 5.81781V5.8139C48.8808 6.66156 47.9863 7.1381 47.1425 6.8803C46.2948 6.62249 45.8183 5.728 46.0761 4.8842C46.1542 4.6342 46.2284 4.3842 46.3105 4.14201C46.4316 3.7592 46.6972 3.43889 47.0448 3.24357C51.4159 0.770869 56.2714 -0.31893 61.0878 0.0912697V0.0873625C61.6855 0.138145 62.205 0.517053 62.4316 1.06783C63.748 4.24363 64.8574 8.29443 65.7207 13.1028C66.5879 17.9114 67.1621 23.2198 67.4395 28.8878C67.5567 31.3253 67.6192 33.8253 67.6192 36.3214C67.6192 38.8175 67.5606 41.3214 67.4395 43.755C67.338 45.7745 67.2052 47.7784 67.0294 49.7042V49.712C66.9513 50.5324 66.2639 51.1653 65.4357 51.1653Z" fill="black"/>
<path d="M78.6427 34.8521H4.56474C3.68193 34.8521 2.96313 34.1334 2.96313 33.2505C2.96313 32.3677 3.68189 31.6489 4.56474 31.6489H78.6427C79.5255 31.6489 80.2443 32.3677 80.2443 33.2505C80.2443 34.1334 79.5256 34.8521 78.6427 34.8521Z" fill="black"/>
</svg>
