<svg xmlns="http://www.w3.org/2000/svg" version="1.1" viewBox="-5.0 -10.0 110.0 135.0">
 <g>
  <path d="m76.328 20.289c-0.64453 0-1.2305-0.39062-1.4766-0.98828-0.25-0.59766-0.11328-1.2852 0.34766-1.7461 0.45703-0.45703 1.1445-0.59375 1.7422-0.34375 0.59766 0.24609 0.98828 0.82812 0.98828 1.4766 0 0.42578-0.16797 0.83203-0.46875 1.1328-0.30078 0.30078-0.70703 0.46875-1.1328 0.46875z"/>
  <path d="m50 85.109c-0.3125 0-0.61719-0.089844-0.875-0.26172-0.085938-0.058594-2.168-1.4219-5.3984-3.7656-0.46094-0.33203-0.94531-0.6875-1.4531-1.0625-4.4727-3.3086-11.086-8.4883-17.219-14.414l-0.035157-0.035157c-2.543-2.4609-4.8398-4.8906-6.8203-7.2148-3.0586-3.6016-5.4336-7.0508-7.0625-10.242-0.50781-0.99219-0.96094-2.0078-1.3594-3.0469-1.3828-3.6367-1.7305-7.3789-1.0273-11.117 0.64453-3.4297 2.1914-6.7695 4.4805-9.6523h-0.003907c2.0781-2.6055 4.6523-4.7734 7.5742-6.3711 2.9922-1.6523 6.3047-2.6602 9.7109-2.9492 4.8164-0.40625 9.6758 0.68359 14.043 3.1523 0.11328 0.0625 0.23437 0.13281 0.35156 0.19922l0.019531 0.011719h0.003907c1.8203 1.0781 3.5195 2.3438 5.0703 3.7812 1.5508-1.4336 3.2461-2.6992 5.0625-3.7734l0.023438-0.015625c0.11719-0.070312 0.23828-0.14062 0.35937-0.20703 4.3633-2.4688 9.2227-3.5586 14.039-3.1523v0.003906c3.4102 0.28906 6.7188 1.2969 9.7148 2.9492 2.9219 1.6016 5.4961 3.7695 7.5742 6.375 2.2852 2.8828 3.8359 6.2227 4.4805 9.6523 0.69922 3.7383 0.35547 7.4805-1.0273 11.117h-0.003906c-0.39844 1.0391-0.85547 2.0586-1.3633 3.0469-1.6289 3.1914-4 6.6367-7.0625 10.238-1.9883 2.3359-4.3008 4.7773-6.8555 7.2539-6.1289 5.918-12.742 11.105-17.215 14.41-0.50781 0.37109-0.98828 0.72656-1.4531 1.0625-3.2305 2.3438-5.3086 3.707-5.3984 3.7656h-0.003906c-0.25781 0.17188-0.5625 0.26172-0.87109 0.26172zm-22.688-21.773c6 5.7891 12.48 10.867 16.863 14.109 0.5 0.36719 0.97656 0.71875 1.4297 1.0508 1.9531 1.4141 3.4961 2.4766 4.3945 3.0859 0.89844-0.60938 2.4414-1.6719 4.3906-3.0898 0.45312-0.33203 0.93359-0.67969 1.4297-1.0508 4.3906-3.2461 10.891-8.3398 16.898-14.141 2.4883-2.3984 4.7227-4.7656 6.6406-7.0234 2.8984-3.4102 5.1367-6.6484 6.6484-9.6211l0.007813 0.003906c0.45312-0.88672 0.85938-1.8008 1.2188-2.7305 2.2734-5.9688 1.1914-12.398-2.9688-17.645-3.6914-4.6602-9.1797-7.6211-15.047-8.1172-4.1719-0.35156-8.3906 0.60156-12.199 2.75-0.10938 0.0625-0.21484 0.12109-0.32031 0.18359l-0.019531 0.011719 0.003906-0.003906c-2.0312 1.207-3.8945 2.6719-5.543 4.3594-0.30078 0.30469-0.71094 0.47656-1.1367 0.47656-0.42969 0-0.83594-0.17187-1.1367-0.47656-1.6523-1.6875-3.5195-3.1523-5.5469-4.3633l-0.019531-0.003907c-0.10156-0.058593-0.20703-0.12109-0.3125-0.17969-3.8125-2.1562-8.0312-3.1055-12.199-2.7539-5.8711 0.5-11.355 3.457-15.047 8.1172-4.1641 5.2422-5.2422 11.672-2.9727 17.645 0.35938 0.92969 0.76562 1.8438 1.2188 2.7305 1.5156 2.9688 3.75 6.207 6.6484 9.6211 1.918 2.2578 4.1523 4.6211 6.6406 7.0234z"/>
  <path d="m56.773 80.332c-0.10156 0-0.20703-0.007812-0.30859-0.03125-0.41797-0.078125-0.78516-0.32422-1.0234-0.67578-0.23438-0.35156-0.32422-0.78516-0.24219-1.2031 1.0273-5.2148 1.7461-11.578 2.0781-18.406 0.14062-2.8711 0.21094-5.832 0.21094-8.8008s-0.070312-5.9336-0.21094-8.8008c-0.21484-4.4688-0.59375-8.7109-1.1211-12.602-0.37109-2.7344-0.8125-5.25-1.3125-7.5078v0.003906c-1.3281 0.94922-2.5664 2.0078-3.7109 3.1719-0.30078 0.30078-0.71094 0.47266-1.1367 0.47266-0.42578 0-0.83594-0.17188-1.1367-0.47266-1.1406-1.1641-2.3828-2.2305-3.707-3.1797-0.5 2.2578-0.94141 4.7734-1.3125 7.5078-0.52734 3.8945-0.90625 8.1367-1.1211 12.605-0.14062 2.8672-0.21094 5.832-0.21094 8.8008s0.070313 5.9336 0.21094 8.8008c0.32812 6.8242 1.0469 13.191 2.0781 18.406v-0.003906c0.089844 0.42188 0.007813 0.85938-0.22656 1.2188-0.23828 0.35938-0.60547 0.60938-1.0273 0.69141s-0.85938-0.007813-1.2148-0.25-0.59766-0.61719-0.67188-1.0391c-1.0586-5.3633-1.8008-11.891-2.1328-18.871-0.14063-2.9219-0.21484-5.9336-0.21484-8.957 0-3.0234 0.070312-6.0352 0.21484-8.957 0.21875-4.5625 0.60547-8.8945 1.1484-12.879 0.48047-3.5312 1.0742-6.7305 1.7656-9.5l0.007812-0.027344c0.046876-0.17969 0.089844-0.35547 0.13672-0.52734l-0.003906-0.003906c0.12891-0.48438 0.47266-0.87891 0.9375-1.0703 0.46094-0.19141 0.98828-0.15625 1.418 0.097656 1.8203 1.0781 3.5156 2.3438 5.0664 3.7773 1.5508-1.4336 3.2461-2.6992 5.0664-3.7734 0.42969-0.25391 0.95703-0.28906 1.4219-0.097656 0.46094 0.19141 0.80859 0.58984 0.93359 1.0742 0.046875 0.17578 0.089844 0.34766 0.13281 0.52734 0.69531 2.7773 1.2891 5.9844 1.7734 9.5273 0.53906 3.9844 0.92969 8.3203 1.1484 12.879 0.14063 2.9219 0.21484 5.9336 0.21484 8.957 0 3.0234-0.070312 6.0352-0.21484 8.957-0.33594 6.9805-1.0742 13.5-2.1328 18.871-0.14844 0.75-0.80469 1.2891-1.5703 1.2891z"/>
  <path d="m26.605 66.477c-0.83594 0-1.5312-0.64844-1.5938-1.4805-0.0625-0.83594 0.52734-1.5781 1.3555-1.7031 4.4062-0.66797 9.2773-1.1406 14.484-1.3984l0.13672-0.007812 0.26562-0.011719c2.8242-0.13672 5.7656-0.19922 8.75-0.19922s5.9297 0.070313 8.75 0.19922l0.26562 0.011719 0.12891 0.007812c5.2109 0.25781 10.086 0.72656 14.488 1.3984h-0.003907c0.875 0.13281 1.4727 0.94922 1.3398 1.8242-0.13281 0.875-0.94922 1.4727-1.8203 1.3398-4.3008-0.65234-9.0625-1.1133-14.16-1.3633l-0.13281-0.007812-0.23828-0.011719h-0.019532c-2.7734-0.13281-5.668-0.19922-8.6016-0.19922-2.9297 0-5.8281 0.066406-8.6016 0.19922h-0.015626l-0.23828 0.011719-0.14062 0.007812c-5.0898 0.25391-9.8555 0.71094-14.156 1.3633h0.003906c-0.082031 0.011719-0.16406 0.019531-0.24609 0.019531z"/>
  <path d="m50 36c-2.6133 0-5.2422-0.054688-7.8086-0.16016l-0.54688-0.023438c-5.1445-0.23047-9.9922-0.67188-14.414-1.3086l-0.71875-0.10937c-5.1406-0.77344-9.375-1.7734-12.586-2.9648-0.85938-0.3125-1.6953-0.67188-2.5117-1.082-0.38281-0.1875-0.67969-0.52344-0.81641-0.92969-0.13672-0.40625-0.10547-0.85156 0.089844-1.2344s0.53516-0.67188 0.94531-0.80078c0.41016-0.12891 0.85547-0.089844 1.2344 0.11328 0.70703 0.35156 1.4297 0.66406 2.1719 0.93359 2.9609 1.1016 7.0938 2.0703 11.945 2.8008l0.69922 0.10156c4.3164 0.62109 9.0625 1.0508 14.102 1.2773l0.53125 0.023438c2.5273 0.10547 5.1094 0.16016 7.6797 0.16016 1.2852 0 2.5742-0.015625 3.8281-0.039063 1.3008-0.027343 2.5938-0.066406 3.8477-0.11719l0.53516-0.023437c5.0391-0.22656 9.7852-0.65625 14.102-1.2773l0.69922-0.10156c4.8477-0.73047 8.9805-1.6992 11.941-2.8008v-0.003906c0.74609-0.26953 1.4766-0.58203 2.1836-0.93359 0.37891-0.20312 0.82422-0.24219 1.2344-0.11328 0.41016 0.12891 0.75 0.41797 0.94531 0.80078s0.22656 0.82812 0.089844 1.2344c-0.13672 0.40625-0.43359 0.74219-0.81641 0.92969-0.81641 0.41016-1.6523 0.76953-2.5117 1.082-3.2109 1.1953-7.4453 2.1914-12.582 2.9648-0.23828 0.035156-0.47656 0.070312-0.71875 0.10156-4.4258 0.63672-9.2773 1.0781-14.418 1.3086-0.18359 0.007812-0.36719 0.015625-0.55078 0.023437-1.2734 0.054688-2.5898 0.09375-3.9102 0.12109-1.2773 0.035156-2.5859 0.046875-3.8945 0.046875z"/>
  <path d="m44 21.84c-0.72266 0-1.3516-0.48438-1.543-1.1797-0.066406-0.21875-0.13281-0.43359-0.19922-0.64453-0.27344-0.83984 0.1875-1.7422 1.0312-2.0156 0.83984-0.26953 1.7422 0.19141 2.0117 1.0312 0.078125 0.24219 0.15625 0.48828 0.23438 0.73828 0.14844 0.48828 0.058594 1.0156-0.24609 1.4219-0.30078 0.41016-0.78125 0.64844-1.2891 0.64844z"/>
  <path d="m26.168 66.055c-0.83594 0-1.5312-0.64453-1.5938-1.4766-0.17578-1.9219-0.3125-3.9141-0.41016-5.9297-0.11719-2.4375-0.17969-4.9414-0.17969-7.4336 0-2.4961 0.058594-5 0.17969-7.4375 0.27344-5.668 0.85156-10.977 1.7188-15.785 0.86328-4.8086 1.9727-8.8594 3.2891-12.035 0.33594-0.81641 1.2734-1.2031 2.0898-0.86328 0.81641 0.33594 1.2031 1.2734 0.86719 2.0898-1.2109 2.9219-2.2812 6.8555-3.1016 11.375-0.83984 4.6719-1.3984 9.8438-1.6719 15.375-0.11719 2.3867-0.17578 4.8359-0.17578 7.2812 0 2.4453 0.058593 4.8945 0.17578 7.2812 0.10156 1.9766 0.23047 3.9336 0.39844 5.8164l0.003906-0.003906c0.003907 0.046875 0.007813 0.097656 0.007813 0.14453 0 0.88281-0.71484 1.5977-1.5977 1.6016z"/>
  <path d="m73.832 66.055c-0.050781 0-0.10156 0-0.14844-0.007813h0.003906c-0.42578-0.039063-0.8125-0.24219-1.0859-0.57031-0.26953-0.32422-0.40234-0.74609-0.36328-1.168 0.17188-1.8828 0.30469-3.8398 0.39844-5.8125 0.11719-2.3867 0.17578-4.8359 0.17578-7.2812 0-2.4453-0.058594-4.8945-0.17578-7.2812-0.26562-5.5312-0.82812-10.699-1.6719-15.375-0.72656-4.0586-1.6641-7.6484-2.7266-10.453-3.6523-0.13281-7.3125 0.73047-10.676 2.5117l-0.027344 0.089843v-0.003906c-0.25781 0.84766-1.1523 1.3242-1.9961 1.0664-0.84766-0.25781-1.3242-1.1523-1.0664-1.9961 0.078125-0.25 0.15234-0.5 0.23438-0.74219 0.12109-0.38281 0.38672-0.70312 0.73438-0.89844 4.3711-2.4727 9.2266-3.5625 14.043-3.1523v-0.003907c0.59766 0.050782 1.1172 0.42969 1.3438 0.98047 1.3164 3.1758 2.4258 7.2266 3.2891 12.035 0.86719 4.8086 1.4414 10.117 1.7188 15.785 0.11719 2.4375 0.17969 4.9375 0.17969 7.4336 0 2.4961-0.058594 5-0.17969 7.4336-0.10156 2.0195-0.23438 4.0234-0.41016 5.9492v0.007812c-0.078125 0.82031-0.76562 1.4531-1.5938 1.4531z"/>
  <path d="m87.039 49.742h-74.078c-0.88281 0-1.6016-0.71875-1.6016-1.6016s0.71875-1.6016 1.6016-1.6016h74.078c0.88281 0 1.6016 0.71875 1.6016 1.6016s-0.71875 1.6016-1.6016 1.6016z"/>
 </g>
<text x="0.0" y="117.5" font-size="5.0" font-weight="bold" font-family="Arbeit Regular, Helvetica, Arial-Unicode, Arial, Sans-serif" fill="#000000">Created by IYIKON</text><text x="0.0" y="122.5" font-size="5.0" font-weight="bold" font-family="Arbeit Regular, Helvetica, Arial-Unicode, Arial, Sans-serif" fill="#000000">from Noun Project</text></svg>